# xmcd CD database file
#
# Track frame offsets:
#	187
#	27261
#	47720
#	71425
#	93457
#	118051
#	151001
#	164107
#	183806
#	203255
#	217412
#	236349
#
# Disc length: 3458 seconds
#
# Revision: 0
# Processed by: cddbd v1.5.2PL0 Copyright (c) Steve Scherf et al.
# Submitted via: CDex 1.51
#
DISCID=9e0d800c
DTITLE=Jane Monheit - The Heart of the Matter
DYEAR=2013
DGENRE=Jazz
TTITLE0=Until It's Time For You To Go
TTITLE1=Depende De Nos
TTITLE2=Little Man You've Had A Busy Day
TTITLE3=Two Lonely People
TTITLE4=A Gente Merece Ser Feliz
TTITLE5=Golden Slumbers - Long and Winding Road
TTITLE6=When She Loved Me
TTITLE7=Born To Be Blue
TTITLE8=Close
TTITLE9=Night Night Stars
TTITLE10=I Get Along Without You Very Well
TTITLE11=Sing
EXTD=YEAR: 2013
EXTT0=
EXTT1=
EXTT2=
EXTT3=
EXTT4=
EXTT5=
EXTT6=
EXTT7=
EXTT8=
EXTT9=
EXTT10=
EXTT11=
PLAYORDER=
